<svg xmlns="http://www.w3.org/2000/svg" version="1.1" xmlns:xlink="http://www.w3.org/1999/xlink" xmlns:svgjs="http://svgjs.dev/svgjs" viewBox="0 0 23.139411210501287 7.295701505558741"><g transform="matrix(0.7420393124859254,0,0,0.7420393124859254,9.164079720705573,2.8060164282554942)"><g transform="matrix(1,0,0,1,0,0)" clip-path="url(#SvgjsClipPath12483)"><g clip-path="url(#SvgjsClipPath12481b60ab581-a97f-4087-baac-6411c3412726)"><path d=" M -1.5002574606858534 0.6964984900881492 C -1.5002574606858534 0.6964984900881492 -1.2341872186803995 -0.18103048747096384 -2.3887871243220253 -0.8033010561218183 L -2.553868235345372 -0.8922744162600985 C -2.6075733014941083 -0.9212161354242088 -2.67135839544307 -0.9117026665635755 -2.714700154321786 -0.8737432176109741 L -2.88629669315043 -0.9662339644992155 L -2.860140555439309 -1.0147455737017004 C -2.837714264080497 -1.0563640491391608 -2.853271028296768 -1.1082750119791924 -2.894865897111745 -1.1307013033380053 L -3.088322168359612 -1.2349717548452446 C -3.129940643797072 -1.2573980462040575 -3.1818516066371036 -1.2418412819877864 -3.204277897995916 -1.2002464131728088 L -3.449503492348916 -0.7452523714362166 C -3.4719297837077288 -0.7036338959987561 -3.456373019491458 -0.6517229331587248 -3.4147545440539973 -0.6292966417999116 L -3.221298272806131 -0.5250261902926726 C -3.17967979736867 -0.5025998989338596 -3.127768834528639 -0.518156663150131 -3.1053425431698263 -0.5597515319651085 L -3.0791864054587053 -0.6082631411675935 L -2.9158285778766144 -0.5202340459286315 L -2.945596528827628 -0.4649945493185028 L -2.9575650864264897 -0.4427807175620363 L -2.969557250647834 -0.4205196725606043 L -3.1146199458056296 -0.15138056963236468 C -3.130318349756799 -0.12222639086590781 -3.119435696792154 -0.0858721922421477 -3.0902815180256966 -0.07015018166849551 L -3.0556269962207097 -0.05147734328447351 L -4.043587753755114 1.7815768925174555 L -3.57884417693306 2.0320667636841554 L -2.5908834193986543 0.19901252788222634 L -2.556228897593668 0.2176853662662488 C -2.527074718827211 0.23338377021741818 -2.4907205202034515 0.22250111725277266 -2.474998509629799 0.19334693848631623 L -2.3119947813849517 -0.10907750214289846 C -2.010892311614784 0.043444885719513104 -1.6160951572097435 0.3098456204397293 -1.5002574606858534 0.6964984900881492 Z" fill="#225777" transform="matrix(1,0,0,1,0,0)" fill-rule="nonzero"></path></g><g clip-path="url(#SvgjsClipPath12481b60ab581-a97f-4087-baac-6411c3412726)"><path d=" M -5.9014053365416705 0.6964984900881492 C -5.9014053365416705 0.6964984900881492 -6.167475578547125 -0.18103048747096384 -5.012875672905498 -0.8033010561218183 L -4.847794561882151 -0.8922744162600985 C -4.794089495733415 -0.9212161354242088 -4.730304401784453 -0.9117026665635755 -4.686962642905737 -0.8737432176109741 L -4.515366104077092 -0.9662339644992155 L -4.541522241788213 -1.0147455737017004 C -4.563948533147026 -1.0563640491391608 -4.548391768930754 -1.1082750119791924 -4.506796900115777 -1.1307013033380053 L -4.313340628867911 -1.2349717548452446 C -4.271722153430449 -1.2573980462040575 -4.219811190590419 -1.2418412819877864 -4.197384899231606 -1.2002464131728088 L -3.9521593048786063 -0.7452523714362166 C -3.929733013519793 -0.7036338959987561 -3.9452897777360643 -0.6517229331587248 -3.986884646551042 -0.6292966417999116 L -4.180340917798908 -0.5250261902926726 C -4.221959393236369 -0.5025998989338596 -4.2738703560764 -0.518156663150131 -4.296296647435213 -0.5597515319651085 L -4.322452785146334 -0.6082631411675935 L -4.485810612728425 -0.5202340459286315 L -4.456042661777412 -0.4649945493185028 L -4.444074104178551 -0.4427807175620363 L -4.432081939957206 -0.4205196725606043 L -4.28701924479941 -0.15138056963236468 C -4.27132084084824 -0.12222639086590781 -4.282203493812887 -0.0858721922421477 -4.3113576725793425 -0.07015018166849551 L -4.346012194384329 -0.05147734328447351 L -3.3580514368499244 1.7815768925174555 L -3.82279501367198 2.0320667636841554 L -4.810755771206385 0.19901252788222634 L -4.845410293011373 0.2176853662662488 C -4.874564471777829 0.23338377021741818 -4.910918670401589 0.22250111725277266 -4.926640680975241 0.19334693848631623 L -5.089644409220087 -0.10907750214289846 C -5.390770485612739 0.043444885719513104 -5.7855676400177805 0.3098456204397293 -5.9014053365416705 0.6964984900881492 Z" fill="#225777" transform="matrix(1,0,0,1,0,0)" fill-rule="nonzero"></path></g><g clip-path="url(#SvgjsClipPath12481b60ab581-a97f-4087-baac-6411c3412726)"><path d=" M -0.40000000000000213 3.514208556276868 L -4.302269122923402 3.514208556276868 L -5.2757118076307865 1.5333060438641544 L -6.58852329715322 3.514208556276868 L -7.059664268668157 3.514208556276868 L -5.28777479171958 0.9034813560187518 L -1.8856827859651588 0.9034813560187518 Z" fill="#173054" transform="matrix(1,0,0,1,0,0)" fill-rule="nonzero"></path></g><g clip-path="url(#SvgjsClipPath12481b60ab581-a97f-4087-baac-6411c3412726)"><path d=" M -5.7166835156125 2.6034414542617466 L -5.433994211379041 2.6034414542617466 L -5.433994211379041 2.886130758495206 L -5.7166835156125 2.886130758495206 Z" fill="#173054" transform="matrix(1,0,0,1,0,0)" fill-rule="nonzero"></path></g><g clip-path="url(#SvgjsClipPath12481b60ab581-a97f-4087-baac-6411c3412726)"><path d=" M -5.292661362573552 2.6034414542617466 L -5.009972058340093 2.6034414542617466 L -5.009972058340093 2.886130758495206 L -5.292661362573552 2.886130758495206 Z" fill="#173054" transform="matrix(1,0,0,1,0,0)" fill-rule="nonzero"></path></g><g clip-path="url(#SvgjsClipPath12481b60ab581-a97f-4087-baac-6411c3412726)"><path d=" M -5.7166835156125 3.0117652033495244 L -5.433994211379041 3.0117652033495244 L -5.433994211379041 3.2944545075829827 L -5.7166835156125 3.2944545075829827 Z" fill="#173054" transform="matrix(1,0,0,1,0,0)" fill-rule="nonzero"></path></g><g clip-path="url(#SvgjsClipPath12481b60ab581-a97f-4087-baac-6411c3412726)"><path d=" M -5.292661362573552 3.0117652033495244 L -5.009972058340093 3.0117652033495244 L -5.009972058340093 3.2944545075829827 L -5.292661362573552 3.2944545075829827 Z" fill="#173054" transform="matrix(1,0,0,1,0,0)" fill-rule="nonzero"></path></g></g><g><path d=" M 0.5640000000000001 0 Q 0.6615 0 0.7215 0.029249999999999998 Q 0.7815 0.058499999999999996 0.834 0.09749999999999992 Q 0.8535 0.11249999999999993 0.864 0.11249999999999993 Q 0.8925000000000001 0.11249999999999993 0.9015 0.020999999999999908 L 0.936 0.020999999999999908 Q 0.933 0.07650000000000001 0.9315 0.15599999999999992 Q 0.93 0.23549999999999993 0.93 0.366 L 0.8955000000000001 0.366 Q 0.885 0.30299999999999994 0.87 0.24449999999999994 Q 0.855 0.18599999999999994 0.8205 0.1439999999999999 Q 0.777 0.08849999999999991 0.7065 0.05774999999999997 Q 0.636 0.026999999999999913 0.561 0.026999999999999913 Q 0.486 0.026999999999999913 0.42525 0.06374999999999997 Q 0.3645 0.10049999999999992 0.321 0.16949999999999998 Q 0.2775 0.23849999999999993 0.25425000000000003 0.33524999999999994 Q 0.231 0.43199999999999994 0.231 0.5535 Q 0.231 0.8234999999999999 0.318 0.94875 Q 0.405 1.074 0.588 1.074 Q 0.642 1.074 0.68175 1.05825 Q 0.7215 1.0425 0.744 1.0274999999999999 Q 0.7725 1.008 0.78 0.99075 Q 0.7875 0.9734999999999999 0.7875 0.945 L 0.7875 0.8009999999999999 Q 0.7875 0.7394999999999999 0.7755 0.7095 Q 0.7635000000000001 0.6795 0.7312500000000001 0.6689999999999999 Q 0.6990000000000001 0.6585 0.636 0.657 L 0.636 0.627 Q 0.663 0.6285 0.6990000000000001 0.62925 Q 0.735 0.6299999999999999 0.77475 0.6307499999999999 Q 0.8145 0.6315 0.8475 0.6315 Q 0.897 0.6315 0.93675 0.6299999999999999 Q 0.9765 0.6285 1.0035 0.627 L 1.0035 0.657 Q 0.9705 0.6585 0.9540000000000001 0.6675 Q 0.9375 0.6764999999999999 0.93225 0.7035 Q 0.927 0.7304999999999999 0.927 0.786 L 0.927 1.083 L 0.897 1.083 Q 0.8955000000000001 1.0574999999999999 0.88575 1.0274999999999999 Q 0.876 0.9974999999999999 0.8565 0.9974999999999999 Q 0.8475 0.9974999999999999 0.8385 1.002 Q 0.8295 1.0065 0.807 1.023 Q 0.7575000000000001 1.0605 0.7020000000000001 1.08225 Q 0.6465 1.1039999999999999 0.5730000000000001 1.1039999999999999 Q 0.4185 1.1039999999999999 0.30825 1.04025 Q 0.198 0.9764999999999999 0.1395 0.8564999999999999 Q 0.081 0.7364999999999999 0.081 0.57 Q 0.081 0.39449999999999996 0.14400000000000002 0.2669999999999999 Q 0.20700000000000002 0.13949999999999996 0.31575000000000003 0.06974999999999998 Q 0.4245 0 0.5640000000000001 0 M 1.56450439453125 0.2895 Q 1.60500439453125 0.2895 1.63575439453125 0.30599999999999994 Q 1.66650439453125 0.3224999999999999 1.6837543945312499 0.3487499999999999 Q 1.70100439453125 0.375 1.70100439453125 0.4079999999999999 Q 1.70100439453125 0.4454999999999999 1.67775439453125 0.474 Q 1.65450439453125 0.5025 1.61550439453125 0.5025 Q 1.58400439453125 0.5025 1.56000439453125 0.48224999999999996 Q 1.53600439453125 0.46199999999999997 1.53600439453125 0.4245 Q 1.53600439453125 0.3959999999999999 1.55175439453125 0.3757499999999999 Q 1.56750439453125 0.3554999999999999 1.58700439453125 0.3434999999999999 Q 1.57650439453125 0.3284999999999999 1.55550439453125 0.3284999999999999 Q 1.50900439453125 0.3284999999999999 1.47000439453125 0.35624999999999996 Q 1.43100439453125 0.3839999999999999 1.40400439453125 0.4275 Q 1.37700439453125 0.471 1.36200439453125 0.5197499999999999 Q 1.34700439453125 0.5685 1.34700439453125 0.6104999999999999 L 1.34700439453125 0.9285 Q 1.34700439453125 1.002 1.38975439453125 1.02675 Q 1.4325043945312501 1.0514999999999999 1.50600439453125 1.0514999999999999 L 1.50600439453125 1.083 Q 1.47150439453125 1.0815 1.40850439453125 1.07925 Q 1.34550439453125 1.077 1.27500439453125 1.077 Q 1.22400439453125 1.077 1.17375439453125 1.07925 Q 1.12350439453125 1.0815 1.09800439453125 1.083 L 1.09800439453125 1.0514999999999999 Q 1.15950439453125 1.0514999999999999 1.18575439453125 1.029 Q 1.21200439453125 1.0065 1.21200439453125 0.9435 L 1.21200439453125 0.474 Q 1.21200439453125 0.4065 1.18800439453125 0.37424999999999997 Q 1.16400439453125 0.34199999999999997 1.09800439453125 0.34199999999999997 L 1.09800439453125 0.3105 Q 1.14600439453125 0.31499999999999995 1.19100439453125 0.31499999999999995 Q 1.23450439453125 0.31499999999999995 1.27425439453125 0.30974999999999997 Q 1.31400439453125 0.3045 1.34700439453125 0.29399999999999993 L 1.34700439453125 0.48149999999999993 Q 1.36350439453125 0.43799999999999994 1.39425439453125 0.39374999999999993 Q 1.42500439453125 0.3494999999999999 1.4685043945312501 0.3194999999999999 Q 1.51200439453125 0.2895 1.56450439453125 0.2895 M 2.099986083984375 0.2895 Q 2.231986083984375 0.2895 2.306236083984375 0.3697499999999999 Q 2.380486083984375 0.44999999999999996 2.380486083984375 0.6194999999999999 L 1.850986083984375 0.6194999999999999 L 1.849486083984375 0.591 L 2.236486083984375 0.591 Q 2.239486083984375 0.5175 2.2244860839843748 0.45524999999999993 Q 2.209486083984375 0.3929999999999999 2.177236083984375 0.3554999999999999 Q 2.144986083984375 0.31799999999999995 2.093986083984375 0.31799999999999995 Q 2.024986083984375 0.31799999999999995 1.971736083984375 0.3869999999999999 Q 1.918486083984375 0.45599999999999996 1.907986083984375 0.6059999999999999 L 1.912486083984375 0.6119999999999999 Q 1.909486083984375 0.6345 1.907986083984375 0.6615 Q 1.906486083984375 0.6884999999999999 1.906486083984375 0.7155 Q 1.906486083984375 0.8174999999999999 1.939486083984375 0.891 Q 1.972486083984375 0.9644999999999999 2.025736083984375 1.00275 Q 2.078986083984375 1.041 2.135986083984375 1.041 Q 2.180986083984375 1.041 2.221486083984375 1.02675 Q 2.2619860839843753 1.0125 2.296486083984375 0.9794999999999999 Q 2.3309860839843752 0.9464999999999999 2.356486083984375 0.891 L 2.386486083984375 0.903 Q 2.369986083984375 0.9524999999999999 2.332486083984375 0.999 Q 2.2949860839843748 1.0454999999999999 2.2379860839843753 1.0747499999999999 Q 2.180986083984375 1.1039999999999999 2.105986083984375 1.1039999999999999 Q 1.997986083984375 1.1039999999999999 1.920736083984375 1.0545 Q 1.843486083984375 1.005 1.802236083984375 0.9172499999999999 Q 1.760986083984375 0.8294999999999999 1.760986083984375 0.7155 Q 1.760986083984375 0.5834999999999999 1.802986083984375 0.48824999999999996 Q 1.844986083984375 0.3929999999999999 1.921486083984375 0.34124999999999994 Q 1.997986083984375 0.2895 2.099986083984375 0.2895 M 2.770458251953125 1.365 Q 2.690958251953125 1.365 2.620458251953125 1.3485 Q 2.549958251953125 1.3319999999999999 2.507208251953125 1.2967499999999998 Q 2.464458251953125 1.2614999999999998 2.464458251953125 1.2075 Q 2.464458251953125 1.155 2.506458251953125 1.1175 Q 2.548458251953125 1.08 2.620458251953125 1.0605 L 2.629458251953125 1.0845 Q 2.596458251953125 1.095 2.576958251953125 1.1265 Q 2.557458251953125 1.158 2.557458251953125 1.197 Q 2.557458251953125 1.266 2.6212082519531252 1.30275 Q 2.684958251953125 1.3395 2.786958251953125 1.3395 Q 2.854458251953125 1.3395 2.918958251953125 1.32225 Q 2.9834582519531248 1.305 3.025458251953125 1.2645 Q 3.0674582519531253 1.224 3.0674582519531253 1.158 Q 3.0674582519531253 1.1085 3.032208251953125 1.07625 Q 2.9969582519531253 1.044 2.893458251953125 1.044 L 2.782458251953125 1.044 Q 2.734458251953125 1.044 2.689458251953125 1.0365 Q 2.6444582519531252 1.029 2.615958251953125 1.005 Q 2.587458251953125 0.981 2.587458251953125 0.9315 Q 2.587458251953125 0.8805 2.629458251953125 0.8332499999999999 Q 2.671458251953125 0.786 2.783958251953125 0.7364999999999999 L 2.801958251953125 0.75 Q 2.750958251953125 0.7769999999999999 2.713458251953125 0.80475 Q 2.675958251953125 0.8325 2.675958251953125 0.87 Q 2.675958251953125 0.9179999999999999 2.747958251953125 0.9179999999999999 L 2.935458251953125 0.9179999999999999 Q 2.998458251953125 0.9179999999999999 3.051708251953125 0.9359999999999999 Q 3.104958251953125 0.954 3.1379582519531253 0.993 Q 3.1709582519531248 1.032 3.1709582519531248 1.095 Q 3.1709582519531248 1.1655 3.125958251953125 1.2269999999999999 Q 3.080958251953125 1.2885 2.991708251953125 1.3267499999999999 Q 2.9024582519531252 1.365 2.770458251953125 1.365 M 2.777958251953125 0.7635 Q 2.704458251953125 0.7635 2.6444582519531252 0.73875 Q 2.584458251953125 0.714 2.549958251953125 0.6615 Q 2.515458251953125 0.609 2.515458251953125 0.5265 Q 2.515458251953125 0.44399999999999995 2.549958251953125 0.39149999999999996 Q 2.584458251953125 0.33899999999999997 2.6444582519531252 0.3142499999999999 Q 2.704458251953125 0.2895 2.777958251953125 0.2895 Q 2.852958251953125 0.2895 2.912208251953125 0.3142499999999999 Q 2.971458251953125 0.33899999999999997 3.005958251953125 0.39149999999999996 Q 3.040458251953125 0.44399999999999995 3.040458251953125 0.5265 Q 3.040458251953125 0.609 3.005958251953125 0.6615 Q 2.971458251953125 0.714 2.912208251953125 0.73875 Q 2.852958251953125 0.7635 2.777958251953125 0.7635 M 2.777958251953125 0.7364999999999999 Q 2.834958251953125 0.7364999999999999 2.867208251953125 0.6915 Q 2.899458251953125 0.6465 2.899458251953125 0.5265 Q 2.899458251953125 0.4065 2.867208251953125 0.36149999999999993 Q 2.834958251953125 0.3164999999999999 2.777958251953125 0.3164999999999999 Q 2.722458251953125 0.3164999999999999 2.689458251953125 0.36149999999999993 Q 2.656458251953125 0.4065 2.656458251953125 0.5265 Q 2.656458251953125 0.6465 2.689458251953125 0.6915 Q 2.722458251953125 0.7364999999999999 2.777958251953125 0.7364999999999999 M 2.993958251953125 0.4139999999999999 L 2.966958251953125 0.40349999999999997 Q 2.987958251953125 0.3524999999999999 3.038958251953125 0.3135 Q 3.0899582519531252 0.27449999999999997 3.145458251953125 0.27449999999999997 Q 3.1844582519531253 0.27449999999999997 3.2084582519531253 0.2962499999999999 Q 3.232458251953125 0.31799999999999995 3.232458251953125 0.36149999999999993 Q 3.232458251953125 0.4079999999999999 3.2077082519531253 0.42674999999999996 Q 3.182958251953125 0.4454999999999999 3.157458251953125 0.4454999999999999 Q 3.134958251953125 0.4454999999999999 3.115458251953125 0.42974999999999997 Q 3.095958251953125 0.4139999999999999 3.092958251953125 0.37949999999999995 Q 3.0899582519531252 0.345 3.1139582519531253 0.2909999999999999 L 3.133458251953125 0.2955 Q 3.070458251953125 0.3194999999999999 3.0434582519531252 0.34575 Q 3.016458251953125 0.372 2.993958251953125 0.4139999999999999 M 3.63896630859375 0.2895 Q 3.73496630859375 0.2895 3.81146630859375 0.3314999999999999 Q 3.88796630859375 0.37349999999999994 3.93371630859375 0.4634999999999999 Q 3.97946630859375 0.5535 3.97946630859375 0.6975 Q 3.97946630859375 0.8414999999999999 3.93371630859375 0.93075 Q 3.88796630859375 1.02 3.81146630859375 1.062 Q 3.73496630859375 1.1039999999999999 3.63896630859375 1.1039999999999999 Q 3.54446630859375 1.1039999999999999 3.46721630859375 1.062 Q 3.38996630859375 1.02 3.34421630859375 0.93075 Q 3.29846630859375 0.8414999999999999 3.29846630859375 0.6975 Q 3.29846630859375 0.5535 3.34421630859375 0.4634999999999999 Q 3.38996630859375 0.37349999999999994 3.46721630859375 0.3314999999999999 Q 3.54446630859375 0.2895 3.63896630859375 0.2895 M 3.63896630859375 0.3194999999999999 Q 3.55346630859375 0.3194999999999999 3.49871630859375 0.4079999999999999 Q 3.44396630859375 0.49649999999999994 3.44396630859375 0.6975 Q 3.44396630859375 0.8985 3.49871630859375 0.98625 Q 3.55346630859375 1.074 3.63896630859375 1.074 Q 3.72446630859375 1.074 3.77921630859375 0.98625 Q 3.83396630859375 0.8985 3.83396630859375 0.6975 Q 3.83396630859375 0.49649999999999994 3.77921630859375 0.4079999999999999 Q 3.72446630859375 0.3194999999999999 3.63896630859375 0.3194999999999999 M 4.5599267578125 0.2895 Q 4.6004267578124995 0.2895 4.6311767578125 0.30599999999999994 Q 4.6619267578125 0.3224999999999999 4.6791767578125 0.3487499999999999 Q 4.6964267578125 0.375 4.6964267578125 0.4079999999999999 Q 4.6964267578125 0.4454999999999999 4.6731767578125 0.474 Q 4.6499267578125 0.5025 4.6109267578125 0.5025 Q 4.5794267578125 0.5025 4.5554267578125 0.48224999999999996 Q 4.5314267578125 0.46199999999999997 4.5314267578125 0.4245 Q 4.5314267578125 0.3959999999999999 4.5471767578125 0.3757499999999999 Q 4.5629267578125 0.3554999999999999 4.5824267578125 0.3434999999999999 Q 4.5719267578125 0.3284999999999999 4.5509267578125 0.3284999999999999 Q 4.5044267578125 0.3284999999999999 4.4654267578125 0.35624999999999996 Q 4.4264267578125 0.3839999999999999 4.3994267578125 0.4275 Q 4.3724267578125 0.471 4.3574267578125 0.5197499999999999 Q 4.3424267578125 0.5685 4.3424267578125 0.6104999999999999 L 4.3424267578125 0.9285 Q 4.3424267578125 1.002 4.3851767578125 1.02675 Q 4.4279267578125 1.0514999999999999 4.5014267578125 1.0514999999999999 L 4.5014267578125 1.083 Q 4.4669267578125 1.0815 4.4039267578125 1.07925 Q 4.3409267578125 1.077 4.2704267578125 1.077 Q 4.2194267578125 1.077 4.1691767578125 1.07925 Q 4.1189267578125 1.0815 4.0934267578125 1.083 L 4.0934267578125 1.0514999999999999 Q 4.1549267578125 1.0514999999999999 4.1811767578125 1.029 Q 4.2074267578125 1.0065 4.2074267578125 0.9435 L 4.2074267578125 0.474 Q 4.2074267578125 0.4065 4.1834267578125 0.37424999999999997 Q 4.1594267578125 0.34199999999999997 4.0934267578125 0.34199999999999997 L 4.0934267578125 0.3105 Q 4.1414267578125 0.31499999999999995 4.1864267578125 0.31499999999999995 Q 4.2299267578125 0.31499999999999995 4.2696767578125 0.30974999999999997 Q 4.3094267578125 0.3045 4.3424267578125 0.29399999999999993 L 4.3424267578125 0.48149999999999993 Q 4.3589267578125 0.43799999999999994 4.3896767578125 0.39374999999999993 Q 4.4204267578125 0.3494999999999999 4.4639267578125 0.3194999999999999 Q 4.5074267578125 0.2895 4.5599267578125 0.2895 M 5.458437744140625 0.3105 L 5.458437744140625 0.3404999999999999 Q 5.429937744140625 0.3434999999999999 5.405937744140625 0.366 Q 5.381937744140625 0.38849999999999996 5.3609377441406245 0.4454999999999999 L 5.114937744140625 1.0905 L 5.089437744140625 1.0905 L 4.813437744140625 0.42599999999999993 Q 4.784937744140625 0.36749999999999994 4.757187744140625 0.3547499999999999 Q 4.729437744140625 0.34199999999999997 4.711437744140625 0.34199999999999997 L 4.711437744140625 0.3105 Q 4.744437744140625 0.31499999999999995 4.780437744140625 0.3172499999999999 Q 4.816437744140625 0.3194999999999999 4.858437744140625 0.3194999999999999 Q 4.904937744140625 0.3194999999999999 4.956687744140625 0.3164999999999999 Q 5.008437744140625 0.3135 5.053437744140625 0.3105 L 5.053437744140625 0.34199999999999997 Q 5.015937744140625 0.34199999999999997 4.9866877441406245 0.34724999999999995 Q 4.957437744140625 0.3524999999999999 4.949937744140625 0.3787499999999999 Q 4.942437744140625 0.4049999999999999 4.967937744140625 0.46799999999999997 L 5.152437744140625 0.9255 L 5.143437744140625 0.9285 L 5.3144377441406245 0.48149999999999993 Q 5.333937744140625 0.43199999999999994 5.330187744140625 0.40274999999999994 Q 5.326437744140625 0.37349999999999994 5.299437744140625 0.35849999999999993 Q 5.272437744140625 0.3434999999999999 5.218437744140625 0.3404999999999999 L 5.218437744140625 0.3105 Q 5.2454377441406255 0.31199999999999994 5.264937744140625 0.31275 Q 5.284437744140625 0.3135 5.303187744140625 0.3142499999999999 Q 5.321937744140625 0.31499999999999995 5.344437744140625 0.31499999999999995 Q 5.378937744140625 0.31499999999999995 5.406687744140625 0.3135 Q 5.434437744140625 0.31199999999999994 5.458437744140625 0.3105 M 5.114937744140625 1.0905 L 5.063937744140625 1.221 Q 5.048937744140625 1.2585 5.033187744140625 1.284 Q 5.017437744140625 1.3094999999999999 4.999437744140625 1.326 Q 4.975437744140625 1.3485 4.942437744140625 1.35675 Q 4.909437744140625 1.365 4.882437744140625 1.365 Q 4.853937744140625 1.365 4.830687744140625 1.3545 Q 4.807437744140625 1.3439999999999999 4.793937744140625 1.32375 Q 4.780437744140625 1.3034999999999999 4.780437744140625 1.275 Q 4.780437744140625 1.2389999999999999 4.801437744140625 1.21725 Q 4.822437744140625 1.1955 4.859937744140625 1.1955 Q 4.891437744140625 1.1955 4.913937744140625 1.2135 Q 4.936437744140625 1.2315 4.936437744140625 1.266 Q 4.936437744140625 1.2914999999999999 4.924437744140625 1.308 Q 4.912437744140625 1.3245 4.895937744140625 1.3335 Q 4.898937744140625 1.335 4.901187744140625 1.335 Q 4.903437744140625 1.335 4.904937744140625 1.335 Q 4.945437744140625 1.335 4.976937744140625 1.30725 Q 5.008437744140625 1.2795 5.032437744140625 1.218 L 5.086437744140625 1.0785 L 5.114937744140625 1.0905 M 6.280513916015625 0.020999999999999908 Q 6.549013916015625 0.020999999999999908 6.679513916015625 0.1552499999999999 Q 6.810013916015625 0.2895 6.810013916015625 0.5399999999999999 Q 6.810013916015625 0.7035 6.746263916015625 0.82575 Q 6.682513916015625 0.948 6.561013916015625 1.0154999999999998 Q 6.439513916015625 1.083 6.267013916015625 1.083 Q 6.244513916015625 1.083 6.207013916015625 1.0815 Q 6.169513916015625 1.08 6.129763916015625 1.07925 Q 6.090013916015625 1.0785 6.057013916015625 1.0785 Q 6.004513916015625 1.0785 5.953513916015625 1.07925 Q 5.902513916015625 1.08 5.871013916015625 1.083 L 5.871013916015625 1.053 Q 5.922013916015625 1.05 5.948263916015625 1.041 Q 5.974513916015625 1.032 5.983513916015625 1.005 Q 5.992513916015625 0.978 5.992513916015625 0.9239999999999999 L 5.992513916015625 0.17999999999999994 Q 5.992513916015625 0.12449999999999994 5.983513916015625 0.09824999999999995 Q 5.974513916015625 0.07199999999999984 5.948263916015625 0.062249999999999917 Q 5.922013916015625 0.05249999999999999 5.871013916015625 0.050999999999999934 L 5.871013916015625 0.020999999999999908 Q 5.902513916015625 0.022499999999999964 5.953513916015625 0.02475000000000005 Q 6.004513916015625 0.026999999999999913 6.054013916015625 0.025499999999999856 Q 6.106513916015625 0.02400000000000002 6.172513916015625 0.022499999999999964 Q 6.238513916015625 0.020999999999999908 6.280513916015625 0.020999999999999908 M 6.243013916015625 0.04800000000000004 Q 6.174013916015625 0.04800000000000004 6.153013916015625 0.0734999999999999 Q 6.132013916015625 0.09899999999999998 6.132013916015625 0.17699999999999994 L 6.132013916015625 0.9269999999999999 Q 6.132013916015625 1.005 6.153763916015625 1.0305 Q 6.175513916015625 1.056 6.244513916015625 1.056 Q 6.408013916015625 1.056 6.498013916015625 0.9967499999999999 Q 6.588013916015625 0.9375 6.624013916015625 0.8234999999999999 Q 6.660013916015625 0.7095 6.660013916015625 0.5459999999999999 Q 6.660013916015625 0.378 6.620263916015625 0.26774999999999993 Q 6.580513916015625 0.15749999999999997 6.489763916015625 0.1027499999999999 Q 6.399013916015625 0.04800000000000004 6.243013916015625 0.04800000000000004 M 7.69058935546875 0.020999999999999908 Q 7.68458935546875 0.0734999999999999 7.68233935546875 0.123 Q 7.68008935546875 0.1725 7.68008935546875 0.19799999999999995 Q 7.68008935546875 0.22499999999999998 7.68158935546875 0.24974999999999992 Q 7.68308935546875 0.27449999999999997 7.68458935546875 0.2909999999999999 L 7.65008935546875 0.2909999999999999 Q 7.6410893554687505 0.2024999999999999 7.62458935546875 0.15074999999999994 Q 7.60808935546875 0.09899999999999998 7.56833935546875 0.07725000000000004 Q 7.52858935546875 0.05549999999999988 7.44908935546875 0.05549999999999988 L 7.32458935546875 0.05549999999999988 Q 7.27358935546875 0.05549999999999988 7.24733935546875 0.06374999999999997 Q 7.22108935546875 0.07199999999999984 7.21208935546875 0.09824999999999995 Q 7.20308935546875 0.12449999999999994 7.20308935546875 0.17999999999999994 L 7.20308935546875 0.9239999999999999 Q 7.20308935546875 0.978 7.21208935546875 1.005 Q 7.22108935546875 1.032 7.24733935546875 1.04025 Q 7.27358935546875 1.0485 7.32458935546875 1.0485 L 7.43408935546875 1.0485 Q 7.52858935546875 1.0485 7.57733935546875 1.023 Q 7.62608935546875 0.9974999999999999 7.64783935546875 0.93975 Q 7.66958935546875 0.8819999999999999 7.68008935546875 0.7829999999999999 L 7.71458935546875 0.7829999999999999 Q 7.71008935546875 0.8234999999999999 7.71008935546875 0.891 Q 7.71008935546875 0.9195 7.71233935546875 0.97275 Q 7.71458935546875 1.026 7.72058935546875 1.083 Q 7.64408935546875 1.08 7.5480893554687505 1.07925 Q 7.45208935546875 1.0785 7.37708935546875 1.0785 Q 7.34408935546875 1.0785 7.29233935546875 1.0785 Q 7.24058935546875 1.0785 7.18058935546875 1.07925 Q 7.12058935546875 1.08 7.05908935546875 1.0807499999999999 Q 6.99758935546875 1.0815 6.94208935546875 1.083 L 6.94208935546875 1.053 Q 6.99308935546875 1.05 7.01933935546875 1.041 Q 7.04558935546875 1.032 7.05458935546875 1.005 Q 7.06358935546875 0.978 7.06358935546875 0.9239999999999999 L 7.06358935546875 0.17999999999999994 Q 7.06358935546875 0.12449999999999994 7.05458935546875 0.09824999999999995 Q 7.04558935546875 0.07199999999999984 7.01933935546875 0.062249999999999917 Q 6.99308935546875 0.05249999999999999 6.94208935546875 0.050999999999999934 L 6.94208935546875 0.020999999999999908 Q 6.99758935546875 0.022499999999999964 7.05908935546875 0.023249999999999993 Q 7.12058935546875 0.02400000000000002 7.18058935546875 0.02475000000000005 Q 7.24058935546875 0.025499999999999856 7.29233935546875 0.025499999999999856 Q 7.34408935546875 0.025499999999999856 7.37708935546875 0.025499999999999856 Q 7.44608935546875 0.025499999999999856 7.53383935546875 0.02475000000000005 Q 7.62158935546875 0.02400000000000002 7.69058935546875 0.020999999999999908 M 7.43258935546875 0.5339999999999999 Q 7.43258935546875 0.5339999999999999 7.43258935546875 0.5489999999999999 Q 7.43258935546875 0.564 7.43258935546875 0.564 L 7.15808935546875 0.564 Q 7.15808935546875 0.564 7.15808935546875 0.5489999999999999 Q 7.15808935546875 0.5339999999999999 7.15808935546875 0.5339999999999999 L 7.43258935546875 0.5339999999999999 M 7.4760893554687495 0.33599999999999997 Q 7.47008935546875 0.4215 7.47083935546875 0.4664999999999999 Q 7.47158935546875 0.5115 7.47158935546875 0.5489999999999999 Q 7.47158935546875 0.5865 7.47308935546875 0.6315 Q 7.47458935546875 0.6764999999999999 7.48058935546875 0.762 L 7.44608935546875 0.762 Q 7.44008935546875 0.714 7.43183935546875 0.66825 Q 7.42358935546875 0.6224999999999999 7.39583935546875 0.5932499999999999 Q 7.36808935546875 0.564 7.30208935546875 0.564 L 7.30208935546875 0.5339999999999999 Q 7.35158935546875 0.5339999999999999 7.37783935546875 0.5137499999999999 Q 7.40408935546875 0.49349999999999994 7.41608935546875 0.46199999999999997 Q 7.42808935546875 0.4305 7.43258935546875 0.39674999999999994 Q 7.43708935546875 0.363 7.44158935546875 0.33599999999999997 L 7.4760893554687495 0.33599999999999997 M 8.1766025390625 0.0044999999999999485 Q 8.2516025390625 0.0044999999999999485 8.2906025390625 0.021749999999999936 Q 8.3296025390625 0.038999999999999924 8.3596025390625 0.05999999999999983 Q 8.3776025390625 0.07050000000000001 8.3888525390625 0.07574999999999998 Q 8.4001025390625 0.08099999999999996 8.4106025390625 0.08099999999999996 Q 8.4256025390625 0.08099999999999996 8.4323525390625 0.0645 Q 8.4391025390625 0.04800000000000004 8.4436025390625 0.014999999999999902 L 8.4781025390625 0.014999999999999902 Q 8.4766025390625 0.04049999999999998 8.4743525390625 0.07574999999999998 Q 8.4721025390625 0.11099999999999999 8.4713525390625 0.16874999999999996 Q 8.4706025390625 0.22649999999999992 8.4706025390625 0.32099999999999995 L 8.4361025390625 0.32099999999999995 Q 8.4316025390625 0.249 8.4046025390625 0.18299999999999994 Q 8.3776025390625 0.11699999999999999 8.3258525390625 0.07499999999999996 Q 8.2741025390625 0.03299999999999992 8.1901025390625 0.03299999999999992 Q 8.1106025390625 0.03299999999999992 8.0588525390625 0.08099999999999996 Q 8.0071025390625 0.1289999999999999 8.0071025390625 0.20699999999999996 Q 8.0071025390625 0.27449999999999997 8.0416025390625 0.3202499999999999 Q 8.0761025390625 0.366 8.1338525390625 0.40274999999999994 Q 8.191602539062501 0.4395 8.2591025390625 0.48149999999999993 Q 8.3371025390625 0.5295 8.3978525390625 0.57675 Q 8.4586025390625 0.6239999999999999 8.4938525390625 0.6809999999999999 Q 8.5291025390625 0.738 8.5291025390625 0.819 Q 8.5291025390625 0.9149999999999999 8.4856025390625 0.978 Q 8.4421025390625 1.041 8.3701025390625 1.0725 Q 8.2981025390625 1.1039999999999999 8.2111025390625 1.1039999999999999 Q 8.1316025390625 1.1039999999999999 8.0851025390625 1.0859999999999999 Q 8.0386025390625 1.068 8.0056025390625 1.0485 Q 7.9726025390625 1.0274999999999999 7.9546025390625 1.0274999999999999 Q 7.9396025390625 1.0274999999999999 7.9328525390625 1.044 Q 7.9261025390625 1.0605 7.9216025390625 1.0935 L 7.8871025390625 1.0935 Q 7.8901025390625 1.062 7.8908525390625 1.01925 Q 7.8916025390625 0.9764999999999999 7.8923525390625 0.9075 Q 7.8931025390625 0.8385 7.8931025390625 0.7334999999999999 L 7.9276025390625 0.7334999999999999 Q 7.9336025390625 0.8234999999999999 7.9613525390625 0.9015 Q 7.9891025390625 0.9794999999999999 8.0468525390625 1.02675 Q 8.1046025390625 1.074 8.2006025390625 1.074 Q 8.2501025390625 1.074 8.2943525390625 1.05375 Q 8.3386025390625 1.0334999999999999 8.3671025390625 0.98925 Q 8.3956025390625 0.945 8.3956025390625 0.8744999999999999 Q 8.3956025390625 0.813 8.3663525390625 0.76725 Q 8.3371025390625 0.7215 8.2846025390625 0.68175 Q 8.2321025390625 0.6419999999999999 8.1616025390625 0.6 Q 8.0911025390625 0.5565 8.0296025390625 0.5115 Q 7.9681025390625 0.4664999999999999 7.9313525390625 0.40725 Q 7.8946025390625 0.348 7.8946025390625 0.2639999999999999 Q 7.8946025390625 0.1755 7.9343525390625 0.11774999999999991 Q 7.9741025390625 0.05999999999999983 8.0386025390625 0.03224999999999989 Q 8.1031025390625 0.0044999999999999485 8.1766025390625 0.0044999999999999485 M 9.159069580078125 0 Q 9.258069580078125 0 9.321819580078126 0.029249999999999998 Q 9.385569580078124 0.058499999999999996 9.435069580078125 0.09749999999999992 Q 9.465069580078126 0.12 9.480819580078125 0.1027499999999999 Q 9.496569580078125 0.08549999999999991 9.502569580078125 0.020999999999999908 L 9.537069580078125 0.020999999999999908 Q 9.534069580078125 0.07650000000000001 9.532569580078125 0.15599999999999992 Q 9.531069580078125 0.23549999999999993 9.531069580078125 0.366 L 9.496569580078125 0.366 Q 9.486069580078125 0.3015 9.477069580078124 0.26325 Q 9.468069580078126 0.22499999999999998 9.455319580078125 0.19799999999999995 Q 9.442569580078125 0.17099999999999993 9.421569580078126 0.1439999999999999 Q 9.375069580078126 0.08250000000000002 9.304569580078125 0.054749999999999854 Q 9.234069580078126 0.026999999999999913 9.156069580078125 0.026999999999999913 Q 9.082569580078125 0.026999999999999913 9.023319580078125 0.06374999999999997 Q 8.964069580078124 0.10049999999999992 8.921319580078125 0.16949999999999998 Q 8.878569580078125 0.23849999999999993 8.855319580078126 0.33599999999999997 Q 8.832069580078125 0.4335 8.832069580078125 0.5549999999999999 Q 8.832069580078125 0.6809999999999999 8.857569580078126 0.7777499999999999 Q 8.883069580078125 0.8744999999999999 8.928819580078125 0.9404999999999999 Q 8.974569580078125 1.0065 9.036819580078125 1.04025 Q 9.099069580078124 1.074 9.171069580078125 1.074 Q 9.238569580078124 1.074 9.312069580078125 1.047 Q 9.385569580078124 1.02 9.427569580078124 0.96 Q 9.460569580078126 0.9165 9.473319580078124 0.8654999999999999 Q 9.486069580078125 0.8145 9.496569580078125 0.723 L 9.531069580078125 0.723 Q 9.531069580078125 0.8594999999999999 9.532569580078125 0.94275 Q 9.534069580078125 1.026 9.537069580078125 1.083 L 9.502569580078125 1.083 Q 9.496569580078125 1.0185 9.482319580078125 1.002 Q 9.468069580078126 0.9854999999999999 9.435069580078125 1.0065 Q 9.379569580078124 1.0454999999999999 9.317319580078125 1.0747499999999999 Q 9.255069580078125 1.1039999999999999 9.157569580078125 1.1039999999999999 Q 9.015069580078125 1.1039999999999999 8.907819580078126 1.0394999999999999 Q 8.800569580078125 0.975 8.741319580078125 0.8534999999999999 Q 8.682069580078124 0.732 8.682069580078124 0.5609999999999999 Q 8.682069580078124 0.3929999999999999 8.743569580078125 0.2669999999999999 Q 8.805069580078126 0.1409999999999999 8.912319580078124 0.07050000000000001 Q 9.019569580078125 0 9.159069580078125 0 M 10.119052001953126 0.013499999999999845 L 10.485052001953125 0.957 Q 10.507552001953124 1.014 10.536052001953125 1.03275 Q 10.564552001953125 1.0514999999999999 10.588552001953126 1.053 L 10.588552001953126 1.083 Q 10.558552001953124 1.08 10.515052001953125 1.07925 Q 10.471552001953125 1.0785 10.428052001953125 1.0785 Q 10.369552001953124 1.0785 10.318552001953124 1.07925 Q 10.267552001953124 1.08 10.236052001953125 1.083 L 10.236052001953125 1.053 Q 10.312552001953126 1.05 10.333552001953125 1.02675 Q 10.354552001953126 1.0035 10.324552001953125 0.9269999999999999 L 10.045552001953125 0.1815 L 10.069552001953125 0.16199999999999992 L 9.808552001953124 0.84 Q 9.784552001953125 0.8999999999999999 9.780052001953125 0.9412499999999999 Q 9.775552001953125 0.9824999999999999 9.788302001953125 1.0065 Q 9.801052001953124 1.0305 9.831802001953125 1.041 Q 9.862552001953125 1.0514999999999999 9.909052001953125 1.053 L 9.909052001953125 1.083 Q 9.867052001953125 1.08 9.821302001953125 1.07925 Q 9.775552001953125 1.0785 9.736552001953125 1.0785 Q 9.699052001953126 1.0785 9.672802001953125 1.07925 Q 9.646552001953125 1.08 9.624052001953125 1.083 L 9.624052001953125 1.053 Q 9.654052001953126 1.0454999999999999 9.685552001953125 1.01775 Q 9.717052001953125 0.99 9.742552001953126 0.9225 L 10.095052001953125 0.013499999999999845 Q 10.101052001953125 0.013499999999999845 10.107052001953125 0.013499999999999845 Q 10.113052001953125 0.013499999999999845 10.119052001953126 0.013499999999999845 M 10.302052001953125 0.651 L 10.302052001953125 0.6809999999999999 L 9.855052001953124 0.6809999999999999 L 9.870052001953125 0.651 L 10.302052001953125 0.651 M 11.793030029296876 0.020999999999999908 L 11.793030029296876 0.050999999999999934 Q 11.742030029296876 0.05249999999999999 11.715780029296875 0.062249999999999917 Q 11.689530029296876 0.07199999999999984 11.680530029296875 0.09824999999999995 Q 11.671530029296875 0.12449999999999994 11.671530029296875 0.17999999999999994 L 11.671530029296875 0.9239999999999999 Q 11.671530029296875 0.978 11.680530029296875 1.005 Q 11.689530029296876 1.032 11.715780029296875 1.041 Q 11.742030029296876 1.05 11.793030029296876 1.053 L 11.793030029296876 1.083 Q 11.758530029296875 1.08 11.706780029296874 1.07925 Q 11.655030029296874 1.0785 11.602530029296876 1.0785 Q 11.544030029296875 1.0785 11.493030029296875 1.07925 Q 11.442030029296875 1.08 11.410530029296876 1.083 L 11.410530029296876 1.053 Q 11.461530029296876 1.05 11.487780029296875 1.041 Q 11.514030029296874 1.032 11.523030029296875 1.005 Q 11.532030029296875 0.978 11.532030029296875 0.9239999999999999 L 11.532030029296875 0.09899999999999998 L 11.538030029296875 0.10349999999999993 L 11.170530029296875 1.0905 L 11.146530029296875 1.0905 L 10.768530029296874 0.11699999999999999 L 10.768530029296874 0.9089999999999999 Q 10.768530029296874 0.963 10.778280029296875 0.9937499999999999 Q 10.788030029296875 1.0245 10.817280029296874 1.03725 Q 10.846530029296876 1.05 10.905030029296874 1.053 L 10.905030029296874 1.083 Q 10.878030029296875 1.08 10.834530029296875 1.07925 Q 10.791030029296875 1.0785 10.752030029296876 1.0785 Q 10.714530029296874 1.0785 10.676280029296874 1.07925 Q 10.638030029296875 1.08 10.612530029296876 1.083 L 10.612530029296876 1.053 Q 10.663530029296876 1.05 10.689780029296875 1.03725 Q 10.716030029296874 1.0245 10.725030029296875 0.9937499999999999 Q 10.734030029296875 0.963 10.734030029296875 0.9089999999999999 L 10.734030029296875 0.17999999999999994 Q 10.734030029296875 0.12449999999999994 10.725030029296875 0.09824999999999995 Q 10.716030029296874 0.07199999999999984 10.689780029296875 0.062249999999999917 Q 10.663530029296876 0.05249999999999999 10.612530029296876 0.050999999999999934 L 10.612530029296876 0.020999999999999908 Q 10.638030029296875 0.022499999999999964 10.676280029296874 0.02400000000000002 Q 10.714530029296874 0.025499999999999856 10.752030029296876 0.025499999999999856 Q 10.785030029296875 0.025499999999999856 10.820280029296875 0.02400000000000002 Q 10.855530029296874 0.022499999999999964 10.879530029296875 0.020999999999999908 L 11.220030029296876 0.9179999999999999 L 11.194530029296875 0.9299999999999999 L 11.532030029296875 0.025499999999999856 Q 11.550030029296876 0.025499999999999856 11.567280029296874 0.025499999999999856 Q 11.584530029296875 0.025499999999999856 11.602530029296876 0.025499999999999856 Q 11.655030029296874 0.025499999999999856 11.706780029296874 0.02400000000000002 Q 11.758530029296875 0.022499999999999964 11.793030029296876 0.020999999999999908 M 11.918987548828126 0.020999999999999908 Q 11.950487548828125 0.022499999999999964 12.001487548828125 0.02400000000000002 Q 12.052487548828125 0.025499999999999856 12.101987548828125 0.025499999999999856 Q 12.172487548828125 0.025499999999999856 12.236987548828125 0.02400000000000002 Q 12.301487548828124 0.022499999999999964 12.328487548828125 0.022499999999999964 Q 12.509987548828125 0.022499999999999964 12.599987548828125 0.10499999999999998 Q 12.689987548828125 0.1874999999999999 12.689987548828125 0.31799999999999995 Q 12.689987548828125 0.372 12.671987548828126 0.4312499999999999 Q 12.653987548828125 0.49049999999999994 12.609737548828125 0.54075 Q 12.565487548828125 0.591 12.488987548828124 0.6224999999999999 Q 12.412487548828125 0.6539999999999999 12.295487548828126 0.6539999999999999 L 12.151487548828126 0.6539999999999999 L 12.151487548828126 0.6239999999999999 L 12.280487548828125 0.6239999999999999 Q 12.386987548828126 0.6239999999999999 12.443237548828126 0.5834999999999999 Q 12.499487548828125 0.5429999999999999 12.519737548828125 0.477 Q 12.539987548828124 0.4109999999999999 12.539987548828124 0.3344999999999999 Q 12.539987548828124 0.19199999999999995 12.483737548828126 0.12149999999999994 Q 12.427487548828125 0.050999999999999934 12.290987548828125 0.050999999999999934 Q 12.221987548828125 0.050999999999999934 12.200987548828126 0.07650000000000001 Q 12.179987548828125 0.10199999999999998 12.179987548828125 0.17999999999999994 L 12.179987548828125 0.9239999999999999 Q 12.179987548828125 0.978 12.191237548828125 1.005 Q 12.202487548828126 1.032 12.235487548828125 1.041 Q 12.268487548828125 1.05 12.331487548828125 1.053 L 12.331487548828125 1.083 Q 12.292487548828126 1.08 12.232487548828125 1.07925 Q 12.172487548828125 1.0785 12.110987548828126 1.0785 Q 12.052487548828125 1.0785 12.001487548828125 1.07925 Q 11.950487548828125 1.08 11.918987548828126 1.083 L 11.918987548828126 1.053 Q 11.969987548828126 1.05 11.996237548828125 1.041 Q 12.022487548828124 1.032 12.031487548828125 1.005 Q 12.040487548828125 0.978 12.040487548828125 0.9239999999999999 L 12.040487548828125 0.17999999999999994 Q 12.040487548828125 0.12449999999999994 12.031487548828125 0.09824999999999995 Q 12.022487548828124 0.07199999999999984 11.996237548828125 0.062249999999999917 Q 11.969987548828126 0.05249999999999999 11.918987548828126 0.050999999999999934 L 11.918987548828126 0.020999999999999908 M 13.1175205078125 0.0044999999999999485 Q 13.1925205078125 0.0044999999999999485 13.2315205078125 0.021749999999999936 Q 13.2705205078125 0.038999999999999924 13.3005205078125 0.05999999999999983 Q 13.3185205078125 0.07050000000000001 13.3297705078125 0.07574999999999998 Q 13.3410205078125 0.08099999999999996 13.3515205078125 0.08099999999999996 Q 13.3665205078125 0.08099999999999996 13.3732705078125 0.0645 Q 13.3800205078125 0.04800000000000004 13.3845205078125 0.014999999999999902 L 13.4190205078125 0.014999999999999902 Q 13.4175205078125 0.04049999999999998 13.4152705078125 0.07574999999999998 Q 13.4130205078125 0.11099999999999999 13.4122705078125 0.16874999999999996 Q 13.4115205078125 0.22649999999999992 13.4115205078125 0.32099999999999995 L 13.3770205078125 0.32099999999999995 Q 13.3725205078125 0.249 13.3455205078125 0.18299999999999994 Q 13.3185205078125 0.11699999999999999 13.2667705078125 0.07499999999999996 Q 13.2150205078125 0.03299999999999992 13.1310205078125 0.03299999999999992 Q 13.0515205078125 0.03299999999999992 12.9997705078125 0.08099999999999996 Q 12.9480205078125 0.1289999999999999 12.9480205078125 0.20699999999999996 Q 12.9480205078125 0.27449999999999997 12.9825205078125 0.3202499999999999 Q 13.0170205078125 0.366 13.0747705078125 0.40274999999999994 Q 13.132520507812501 0.4395 13.2000205078125 0.48149999999999993 Q 13.2780205078125 0.5295 13.3387705078125 0.57675 Q 13.3995205078125 0.6239999999999999 13.4347705078125 0.6809999999999999 Q 13.4700205078125 0.738 13.4700205078125 0.819 Q 13.4700205078125 0.9149999999999999 13.4265205078125 0.978 Q 13.3830205078125 1.041 13.3110205078125 1.0725 Q 13.2390205078125 1.1039999999999999 13.1520205078125 1.1039999999999999 Q 13.0725205078125 1.1039999999999999 13.0260205078125 1.0859999999999999 Q 12.9795205078125 1.068 12.9465205078125 1.0485 Q 12.9135205078125 1.0274999999999999 12.8955205078125 1.0274999999999999 Q 12.8805205078125 1.0274999999999999 12.8737705078125 1.044 Q 12.8670205078125 1.0605 12.8625205078125 1.0935 L 12.8280205078125 1.0935 Q 12.8310205078125 1.062 12.8317705078125 1.01925 Q 12.8325205078125 0.9764999999999999 12.8332705078125 0.9075 Q 12.8340205078125 0.8385 12.8340205078125 0.7334999999999999 L 12.8685205078125 0.7334999999999999 Q 12.8745205078125 0.8234999999999999 12.9022705078125 0.9015 Q 12.9300205078125 0.9794999999999999 12.9877705078125 1.02675 Q 13.0455205078125 1.074 13.1415205078125 1.074 Q 13.1910205078125 1.074 13.2352705078125 1.05375 Q 13.2795205078125 1.0334999999999999 13.3080205078125 0.98925 Q 13.3365205078125 0.945 13.3365205078125 0.8744999999999999 Q 13.3365205078125 0.813 13.3072705078125 0.76725 Q 13.2780205078125 0.7215 13.2255205078125 0.68175 Q 13.1730205078125 0.6419999999999999 13.1025205078125 0.6 Q 13.0320205078125 0.5565 12.9705205078125 0.5115 Q 12.9090205078125 0.4664999999999999 12.8722705078125 0.40725 Q 12.8355205078125 0.348 12.8355205078125 0.2639999999999999 Q 12.8355205078125 0.1755 12.8752705078125 0.11774999999999991 Q 12.9150205078125 0.05999999999999983 12.9795205078125 0.03224999999999989 Q 13.0440205078125 0.0044999999999999485 13.1175205078125 0.0044999999999999485" fill="#173054" fill-rule="nonzero"></path></g><g><path d=" M 0.02475 2.156475 Q 0.02475 2.119725 0.04575 2.0930999999999997 Q 0.06675 2.0664749999999996 0.10387500000000001 2.05185 Q 0.14100000000000001 2.037225 0.18975 2.037225 Q 0.21825 2.037225 0.249 2.0417249999999996 Q 0.27975 2.0462249999999997 0.30375 2.0552249999999996 L 0.30375 2.0222249999999997 Q 0.30375 1.9727249999999996 0.2745 1.9434749999999998 Q 0.24525 1.9142249999999996 0.1935 1.9142249999999996 Q 0.162 1.9142249999999996 0.131625 1.9258499999999996 Q 0.10125 1.9374749999999996 0.06825 1.9599749999999998 L 0.04875 1.9239749999999998 Q 0.08700000000000001 1.8977249999999997 0.12375 1.8845999999999998 Q 0.1605 1.8714749999999998 0.19875 1.8714749999999998 Q 0.27075 1.8714749999999998 0.31275000000000003 1.9127249999999998 Q 0.35475 1.9539749999999998 0.35475 2.026725 L 0.35475 2.2074749999999996 Q 0.35475 2.2179749999999996 0.35925 2.2228499999999998 Q 0.36375 2.227725 0.3735 2.2284749999999995 L 0.3735 2.2689749999999997 Q 0.36525 2.2697249999999998 0.35925 2.270475 Q 0.35325 2.271225 0.35025 2.270475 Q 0.3315 2.2697249999999998 0.32175 2.258475 Q 0.312 2.247225 0.31125 2.2344749999999998 L 0.3105 2.2059749999999996 Q 0.28425 2.2397249999999995 0.24225 2.2580999999999998 Q 0.20025 2.2764749999999996 0.15675 2.2764749999999996 Q 0.11925000000000001 2.2764749999999996 0.088875 2.26035 Q 0.0585 2.2442249999999997 0.041625 2.2168499999999995 Q 0.02475 2.189475 0.02475 2.156475 M 0.28650000000000003 2.1864749999999997 Q 0.29475 2.1759749999999998 0.29925 2.166225 Q 0.30375 2.156475 0.30375 2.1489749999999996 L 0.30375 2.0919749999999997 Q 0.27825 2.0822249999999998 0.250875 2.0769749999999996 Q 0.2235 2.071725 0.19575 2.071725 Q 0.14100000000000001 2.071725 0.10725 2.0934749999999998 Q 0.0735 2.1152249999999997 0.0735 2.1527249999999998 Q 0.0735 2.1744749999999997 0.08475 2.1935999999999996 Q 0.096 2.212725 0.11775000000000001 2.2251 Q 0.1395 2.237475 0.16875 2.237475 Q 0.20550000000000002 2.237475 0.237375 2.223225 Q 0.26925 2.2089749999999997 0.28650000000000003 2.1864749999999997 M 1.0473621826171875 2.2689749999999997 L 0.9963621826171875 2.2689749999999997 L 0.9963621826171875 2.050725 Q 0.9963621826171875 1.9824749999999998 0.9746121826171874 1.9502249999999997 Q 0.9528621826171875 1.9179749999999998 0.9101121826171874 1.9179749999999998 Q 0.8658621826171875 1.9179749999999998 0.8309871826171875 1.9494749999999996 Q 0.7961121826171874 1.9809749999999997 0.7818621826171874 2.0304749999999996 L 0.7818621826171874 2.2689749999999997 L 0.7308621826171875 2.2689749999999997 L 0.7308621826171875 2.050725 Q 0.7308621826171875 1.9817249999999997 0.7098621826171874 1.9498499999999996 Q 0.6888621826171875 1.9179749999999998 0.6453621826171875 1.9179749999999998 Q 0.6018621826171875 1.9179749999999998 0.5666121826171875 1.9487249999999998 Q 0.5313621826171875 1.9794749999999999 0.5171121826171874 2.0297249999999996 L 0.5171121826171874 2.2689749999999997 L 0.46611218261718745 2.2689749999999997 L 0.46611218261718745 1.8782249999999998 L 0.5126121826171874 1.8782249999999998 L 0.5126121826171874 1.9667249999999998 Q 0.5373621826171875 1.9209749999999997 0.5759871826171874 1.8962249999999998 Q 0.6146121826171874 1.8714749999999998 0.6618621826171874 1.8714749999999998 Q 0.7106121826171874 1.8714749999999998 0.7406121826171874 1.8992249999999997 Q 0.7706121826171874 1.9269749999999997 0.7773621826171875 1.9719749999999998 Q 0.8043621826171874 1.9224749999999997 0.8422371826171875 1.8969749999999999 Q 0.8801121826171874 1.8714749999999998 0.9281121826171874 1.8714749999999998 Q 0.9611121826171874 1.8714749999999998 0.9839871826171874 1.8834749999999998 Q 1.0068621826171875 1.8954749999999998 1.0207371826171876 1.9175999999999997 Q 1.0346121826171875 1.9397249999999997 1.0409871826171875 1.9708499999999998 Q 1.0473621826171875 2.001975 1.0473621826171875 2.0402249999999995 L 1.0473621826171875 2.2689749999999997 M 1.3252419433593752 2.2764749999999996 Q 1.2832419433593751 2.2764749999999996 1.247241943359375 2.26035 Q 1.211241943359375 2.2442249999999997 1.1849919433593752 2.2161 Q 1.158741943359375 2.187975 1.1441169433593752 2.1512249999999997 Q 1.129491943359375 2.1144749999999997 1.129491943359375 2.072475 Q 1.129491943359375 2.0177249999999995 1.1546169433593751 1.9719749999999998 Q 1.179741943359375 1.9262249999999996 1.2239919433593751 1.8988499999999997 Q 1.268241943359375 1.8714749999999998 1.3244919433593751 1.8714749999999998 Q 1.3822419433593751 1.8714749999999998 1.425366943359375 1.8992249999999997 Q 1.468491943359375 1.9269749999999997 1.493241943359375 1.9723499999999996 Q 1.5179919433593752 2.0177249999999995 1.5179919433593752 2.071725 Q 1.5179919433593752 2.0777249999999996 1.5179919433593752 2.08335 Q 1.5179919433593752 2.0889749999999996 1.5172419433593751 2.0919749999999997 L 1.182741943359375 2.0919749999999997 Q 1.186491943359375 2.1339749999999995 1.206366943359375 2.1666 Q 1.226241943359375 2.1992249999999998 1.258116943359375 2.2183499999999996 Q 1.2899919433593752 2.237475 1.327491943359375 2.237475 Q 1.3657419433593752 2.237475 1.3998669433593751 2.2179749999999996 Q 1.433991943359375 2.1984749999999997 1.4474919433593751 2.166975 L 1.491741943359375 2.178975 Q 1.479741943359375 2.2067249999999996 1.4549919433593752 2.2292249999999996 Q 1.4302419433593752 2.2517249999999995 1.3968669433593752 2.2640999999999996 Q 1.363491943359375 2.2764749999999996 1.3252419433593752 2.2764749999999996 M 1.181241943359375 2.0552249999999996 L 1.469991943359375 2.0552249999999996 Q 1.4669919433593752 2.012475 1.4471169433593751 1.9802249999999997 Q 1.427241943359375 1.9479749999999998 1.3953669433593752 1.9295999999999998 Q 1.363491943359375 1.9112249999999997 1.3252419433593752 1.9112249999999997 Q 1.286991943359375 1.9112249999999997 1.2554919433593752 1.9295999999999998 Q 1.2239919433593751 1.9479749999999998 1.204116943359375 1.9805999999999997 Q 1.1842419433593752 2.013225 1.181241943359375 2.0552249999999996 M 1.340241943359375 1.8039749999999997 L 1.3064919433593751 1.7912249999999998 L 1.350741943359375 1.7214749999999999 L 1.404741943359375 1.7214749999999999 L 1.340241943359375 1.8039749999999997 M 1.6000982666015626 1.7214749999999999 L 1.6510982666015626 1.7214749999999999 L 1.6510982666015626 2.180475 Q 1.6510982666015626 2.2097249999999997 1.6615982666015627 2.2187249999999996 Q 1.6720982666015627 2.227725 1.6870982666015626 2.227725 Q 1.7005982666015627 2.227725 1.7140982666015627 2.224725 Q 1.7275982666015626 2.2217249999999997 1.7373482666015627 2.2187249999999996 L 1.7463482666015626 2.259975 Q 1.7320982666015627 2.2659749999999996 1.7114732666015626 2.2697249999999998 Q 1.6908482666015625 2.273475 1.6758482666015626 2.273475 Q 1.6413482666015626 2.273475 1.6207232666015625 2.2532249999999996 Q 1.6000982666015626 2.2329749999999997 1.6000982666015626 2.1977249999999997 L 1.6000982666015626 1.7214749999999999 M 1.8029527587890626 2.2689749999999997 L 1.8029527587890626 1.8782249999999998 L 1.8539527587890627 1.8782249999999998 L 1.8539527587890627 2.2689749999999997 L 1.8029527587890626 2.2689749999999997 M 1.8029527587890626 1.7964749999999996 L 1.8029527587890626 1.7214749999999999 L 1.8539527587890627 1.7214749999999999 L 1.8539527587890627 1.7964749999999996 L 1.8029527587890626 1.7964749999999996 M 2.1340909423828127 2.2764749999999996 Q 2.092090942382813 2.2764749999999996 2.056465942382813 2.26035 Q 2.020840942382813 2.2442249999999997 1.9949659423828128 2.2161 Q 1.9690909423828127 2.187975 1.9548409423828128 2.1515999999999997 Q 1.9405909423828127 2.1152249999999997 1.9405909423828127 2.074725 Q 1.9405909423828127 2.0327249999999997 1.9548409423828128 1.9963499999999996 Q 1.9690909423828127 1.9599749999999998 1.9953409423828128 1.9318499999999998 Q 2.021590942382813 1.9037249999999997 2.057215942382813 1.8875999999999997 Q 2.0928409423828125 1.8714749999999998 2.1348409423828127 1.8714749999999998 Q 2.1768409423828126 1.8714749999999998 2.2120909423828126 1.8875999999999997 Q 2.2473409423828126 1.9037249999999997 2.2735909423828127 1.9318499999999998 Q 2.299840942382813 1.9599749999999998 2.314090942382813 1.9963499999999996 Q 2.3283409423828125 2.0327249999999997 2.3283409423828125 2.074725 Q 2.3283409423828125 2.1152249999999997 2.314090942382813 2.1515999999999997 Q 2.299840942382813 2.187975 2.2739659423828127 2.2161 Q 2.2480909423828126 2.2442249999999997 2.2124659423828126 2.26035 Q 2.1768409423828126 2.2764749999999996 2.1340909423828127 2.2764749999999996 M 1.9923409423828127 2.075475 Q 1.9923409423828127 2.118975 2.0114659423828125 2.1546 Q 2.030590942382813 2.190225 2.0628409423828127 2.2108499999999998 Q 2.0950909423828126 2.2314749999999997 2.1340909423828127 2.2314749999999997 Q 2.173090942382813 2.2314749999999997 2.2053409423828128 2.2104749999999997 Q 2.2375909423828126 2.189475 2.2570909423828125 2.1531 Q 2.276590942382813 2.1167249999999997 2.276590942382813 2.073975 Q 2.276590942382813 2.0304749999999996 2.2570909423828125 1.9944749999999998 Q 2.2375909423828126 1.9584749999999997 2.2053409423828128 1.9374749999999996 Q 2.173090942382813 1.9164749999999997 2.1340909423828127 1.9164749999999997 Q 2.0950909423828126 1.9164749999999997 2.0632159423828127 1.9382249999999996 Q 2.031340942382813 1.9599749999999998 2.0118409423828125 1.9955999999999998 Q 1.9923409423828127 2.0312249999999996 1.9923409423828127 2.075475 M 2.609943969726563 1.9232249999999997 Q 2.558943969726563 1.9247249999999998 2.5203189697265627 1.9517249999999997 Q 2.481693969726563 1.9787249999999998 2.465943969726563 2.025975 L 2.465943969726563 2.2689749999999997 L 2.4149439697265627 2.2689749999999997 L 2.4149439697265627 1.8782249999999998 L 2.4629439697265627 1.8782249999999998 L 2.4629439697265627 1.9719749999999998 Q 2.4831939697265626 1.9307249999999998 2.516568969726563 1.9052249999999997 Q 2.549943969726563 1.8797249999999996 2.5874439697265625 1.8767249999999998 Q 2.594943969726563 1.8759749999999997 2.6005689697265626 1.8759749999999997 Q 2.606193969726563 1.8759749999999997 2.609943969726563 1.8767249999999998 L 2.609943969726563 1.9232249999999997 M 2.8360854492187504 2.2764749999999996 Q 2.79408544921875 2.2764749999999996 2.75808544921875 2.26035 Q 2.7220854492187505 2.2442249999999997 2.6958354492187504 2.2161 Q 2.6695854492187503 2.187975 2.65496044921875 2.1512249999999997 Q 2.6403354492187505 2.1144749999999997 2.6403354492187505 2.072475 Q 2.6403354492187505 2.0177249999999995 2.66546044921875 1.9719749999999998 Q 2.69058544921875 1.9262249999999996 2.73483544921875 1.8988499999999997 Q 2.7790854492187504 1.8714749999999998 2.8353354492187504 1.8714749999999998 Q 2.8930854492187503 1.8714749999999998 2.93621044921875 1.8992249999999997 Q 2.9793354492187505 1.9269749999999997 3.00408544921875 1.9723499999999996 Q 3.02883544921875 2.0177249999999995 3.02883544921875 2.071725 Q 3.02883544921875 2.0777249999999996 3.02883544921875 2.08335 Q 3.02883544921875 2.0889749999999996 3.02808544921875 2.0919749999999997 L 2.6935854492187503 2.0919749999999997 Q 2.6973354492187505 2.1339749999999995 2.7172104492187503 2.1666 Q 2.73708544921875 2.1992249999999998 2.7689604492187505 2.2183499999999996 Q 2.8008354492187504 2.237475 2.8383354492187505 2.237475 Q 2.87658544921875 2.237475 2.91071044921875 2.2179749999999996 Q 2.9448354492187505 2.1984749999999997 2.95833544921875 2.166975 L 3.0025854492187505 2.178975 Q 2.9905854492187505 2.2067249999999996 2.9658354492187504 2.2292249999999996 Q 2.9410854492187504 2.2517249999999995 2.9077104492187504 2.2640999999999996 Q 2.8743354492187505 2.2764749999999996 2.8360854492187504 2.2764749999999996 M 2.6920854492187503 2.0552249999999996 L 2.98083544921875 2.0552249999999996 Q 2.9778354492187504 2.012475 2.95796044921875 1.9802249999999997 Q 2.9380854492187503 1.9479749999999998 2.9062104492187504 1.9295999999999998 Q 2.8743354492187505 1.9112249999999997 2.8360854492187504 1.9112249999999997 Q 2.7978354492187503 1.9112249999999997 2.7663354492187504 1.9295999999999998 Q 2.73483544921875 1.9479749999999998 2.7149604492187502 1.9805999999999997 Q 2.6950854492187504 2.013225 2.6920854492187503 2.0552249999999996 M 3.3970872802734378 2.2689749999999997 L 3.238837280273438 1.8782249999999998 L 3.2920872802734378 1.8782249999999998 L 3.425587280273438 2.2179749999999996 L 3.5598372802734377 1.8782249999999998 L 3.610087280273438 1.8782249999999998 L 3.451837280273438 2.2689749999999997 L 3.3970872802734378 2.2689749999999997 M 3.834723266601563 2.2764749999999996 Q 3.792723266601563 2.2764749999999996 3.757098266601563 2.26035 Q 3.721473266601563 2.2442249999999997 3.695598266601563 2.2161 Q 3.669723266601563 2.187975 3.655473266601563 2.1515999999999997 Q 3.641223266601563 2.1152249999999997 3.641223266601563 2.074725 Q 3.641223266601563 2.0327249999999997 3.655473266601563 1.9963499999999996 Q 3.669723266601563 1.9599749999999998 3.695973266601563 1.9318499999999998 Q 3.722223266601563 1.9037249999999997 3.757848266601563 1.8875999999999997 Q 3.7934732666015627 1.8714749999999998 3.835473266601563 1.8714749999999998 Q 3.8774732666015628 1.8714749999999998 3.9127232666015628 1.8875999999999997 Q 3.947973266601563 1.9037249999999997 3.974223266601563 1.9318499999999998 Q 4.0004732666015625 1.9599749999999998 4.014723266601563 1.9963499999999996 Q 4.028973266601563 2.0327249999999997 4.028973266601563 2.074725 Q 4.028973266601563 2.1152249999999997 4.014723266601563 2.1515999999999997 Q 4.0004732666015625 2.187975 3.974598266601563 2.2161 Q 3.948723266601563 2.2442249999999997 3.913098266601563 2.26035 Q 3.8774732666015628 2.2764749999999996 3.834723266601563 2.2764749999999996 M 3.692973266601563 2.075475 Q 3.692973266601563 2.118975 3.7120982666015627 2.1546 Q 3.731223266601563 2.190225 3.763473266601563 2.2108499999999998 Q 3.795723266601563 2.2314749999999997 3.834723266601563 2.2314749999999997 Q 3.873723266601563 2.2314749999999997 3.905973266601563 2.2104749999999997 Q 3.938223266601563 2.189475 3.9577232666015627 2.1531 Q 3.977223266601563 2.1167249999999997 3.977223266601563 2.073975 Q 3.977223266601563 2.0304749999999996 3.9577232666015627 1.9944749999999998 Q 3.938223266601563 1.9584749999999997 3.905973266601563 1.9374749999999996 Q 3.873723266601563 1.9164749999999997 3.834723266601563 1.9164749999999997 Q 3.795723266601563 1.9164749999999997 3.763848266601563 1.9382249999999996 Q 3.731973266601563 1.9599749999999998 3.7124732666015627 1.9955999999999998 Q 3.692973266601563 2.0312249999999996 3.692973266601563 2.075475 M 4.297079589843751 2.250225 Q 4.291079589843751 2.2524749999999996 4.27832958984375 2.258475 Q 4.2655795898437505 2.2644749999999996 4.247579589843751 2.2689749999999997 Q 4.22957958984375 2.273475 4.20857958984375 2.273475 Q 4.18682958984375 2.273475 4.16770458984375 2.2652249999999996 Q 4.1485795898437505 2.2569749999999997 4.13732958984375 2.2400999999999995 Q 4.126079589843751 2.223225 4.126079589843751 2.1984749999999997 L 4.126079589843751 1.9187249999999998 L 4.07207958984375 1.9187249999999998 L 4.07207958984375 1.8782249999999998 L 4.126079589843751 1.8782249999999998 L 4.126079589843751 1.7462249999999997 L 4.177079589843751 1.7462249999999997 L 4.177079589843751 1.8782249999999998 L 4.267079589843751 1.8782249999999998 L 4.267079589843751 1.9187249999999998 L 4.177079589843751 1.9187249999999998 L 4.177079589843751 2.1842249999999996 Q 4.178579589843751 2.2052249999999995 4.19245458984375 2.215725 Q 4.20632958984375 2.226225 4.224329589843751 2.226225 Q 4.245329589843751 2.226225 4.26257958984375 2.2190999999999996 Q 4.27982958984375 2.211975 4.28357958984375 2.2089749999999997 L 4.297079589843751 2.250225 M 4.556971069335938 1.9232249999999997 Q 4.505971069335938 1.9247249999999998 4.467346069335938 1.9517249999999997 Q 4.428721069335938 1.9787249999999998 4.412971069335938 2.025975 L 4.412971069335938 2.2689749999999997 L 4.361971069335938 2.2689749999999997 L 4.361971069335938 1.8782249999999998 L 4.409971069335938 1.8782249999999998 L 4.409971069335938 1.9719749999999998 Q 4.430221069335938 1.9307249999999998 4.463596069335938 1.9052249999999997 Q 4.496971069335938 1.8797249999999996 4.534471069335938 1.8767249999999998 Q 4.541971069335938 1.8759749999999997 4.547596069335938 1.8759749999999997 Q 4.553221069335938 1.8759749999999997 4.556971069335938 1.8767249999999998 L 4.556971069335938 1.9232249999999997 M 4.783112548828125 2.2764749999999996 Q 4.741112548828125 2.2764749999999996 4.705112548828126 2.26035 Q 4.669112548828125 2.2442249999999997 4.642862548828125 2.2161 Q 4.616612548828126 2.187975 4.601987548828125 2.1512249999999997 Q 4.587362548828126 2.1144749999999997 4.587362548828126 2.072475 Q 4.587362548828126 2.0177249999999995 4.612487548828126 1.9719749999999998 Q 4.637612548828126 1.9262249999999996 4.681862548828126 1.8988499999999997 Q 4.726112548828126 1.8714749999999998 4.782362548828125 1.8714749999999998 Q 4.840112548828126 1.8714749999999998 4.883237548828125 1.8992249999999997 Q 4.926362548828125 1.9269749999999997 4.951112548828125 1.9723499999999996 Q 4.975862548828125 2.0177249999999995 4.975862548828125 2.071725 Q 4.975862548828125 2.0777249999999996 4.975862548828125 2.08335 Q 4.975862548828125 2.0889749999999996 4.975112548828125 2.0919749999999997 L 4.640612548828125 2.0919749999999997 Q 4.644362548828125 2.1339749999999995 4.664237548828125 2.1666 Q 4.684112548828126 2.1992249999999998 4.715987548828125 2.2183499999999996 Q 4.747862548828126 2.237475 4.785362548828125 2.237475 Q 4.823612548828126 2.237475 4.857737548828125 2.2179749999999996 Q 4.891862548828126 2.1984749999999997 4.905362548828125 2.166975 L 4.949612548828125 2.178975 Q 4.937612548828126 2.2067249999999996 4.912862548828126 2.2292249999999996 Q 4.888112548828126 2.2517249999999995 4.854737548828125 2.2640999999999996 Q 4.821362548828126 2.2764749999999996 4.783112548828125 2.2764749999999996 M 4.639112548828126 2.0552249999999996 L 4.927862548828125 2.0552249999999996 Q 4.924862548828125 2.012475 4.904987548828125 1.9802249999999997 Q 4.8851125488281255 1.9479749999999998 4.853237548828125 1.9295999999999998 Q 4.821362548828126 1.9112249999999997 4.783112548828125 1.9112249999999997 Q 4.7448625488281255 1.9112249999999997 4.713362548828125 1.9295999999999998 Q 4.681862548828126 1.9479749999999998 4.661987548828126 1.9805999999999997 Q 4.642112548828125 2.013225 4.639112548828126 2.0552249999999996 M 5.2480975341796885 2.2689749999999997 L 5.2480975341796885 1.8782249999999998 L 5.299097534179688 1.8782249999999998 L 5.299097534179688 2.2689749999999997 L 5.2480975341796885 2.2689749999999997 M 5.2480975341796885 1.7964749999999996 L 5.2480975341796885 1.7214749999999999 L 5.299097534179688 1.7214749999999999 L 5.299097534179688 1.7964749999999996 L 5.2480975341796885 1.7964749999999996 M 5.7412357177734386 2.2689749999999997 L 5.690235717773438 2.2689749999999997 L 5.690235717773438 2.050725 Q 5.690235717773438 1.9817249999999997 5.6699857177734385 1.9498499999999996 Q 5.649735717773439 1.9179749999999998 5.606235717773438 1.9179749999999998 Q 5.5762357177734385 1.9179749999999998 5.546985717773438 1.9325999999999999 Q 5.517735717773438 1.9472249999999998 5.495610717773438 1.9723499999999996 Q 5.473485717773438 1.9974749999999997 5.463735717773438 2.0297249999999996 L 5.463735717773438 2.2689749999999997 L 5.4127357177734385 2.2689749999999997 L 5.4127357177734385 1.8782249999999998 L 5.4592357177734385 1.8782249999999998 L 5.4592357177734385 1.9667249999999998 Q 5.474985717773438 1.9382249999999996 5.500485717773438 1.9168499999999997 Q 5.525985717773438 1.8954749999999998 5.558235717773438 1.8834749999999998 Q 5.590485717773438 1.8714749999999998 5.624985717773439 1.8714749999999998 Q 5.657235717773438 1.8714749999999998 5.679735717773438 1.8834749999999998 Q 5.702235717773438 1.8954749999999998 5.7157357177734385 1.9175999999999997 Q 5.729235717773438 1.9397249999999997 5.735235717773438 1.9708499999999998 Q 5.7412357177734386 2.001975 5.7412357177734386 2.0402249999999995 L 5.7412357177734386 2.2689749999999997 M 6.034862915039064 2.250225 Q 6.028862915039063 2.2524749999999996 6.016112915039063 2.258475 Q 6.003362915039063 2.2644749999999996 5.9853629150390635 2.2689749999999997 Q 5.967362915039063 2.273475 5.946362915039063 2.273475 Q 5.924612915039063 2.273475 5.905487915039063 2.2652249999999996 Q 5.886362915039063 2.2569749999999997 5.875112915039063 2.2400999999999995 Q 5.863862915039063 2.223225 5.863862915039063 2.1984749999999997 L 5.863862915039063 1.9187249999999998 L 5.809862915039063 1.9187249999999998 L 5.809862915039063 1.8782249999999998 L 5.863862915039063 1.8782249999999998 L 5.863862915039063 1.7462249999999997 L 5.9148629150390635 1.7462249999999997 L 5.9148629150390635 1.8782249999999998 L 6.004862915039063 1.8782249999999998 L 6.004862915039063 1.9187249999999998 L 5.9148629150390635 1.9187249999999998 L 5.9148629150390635 2.1842249999999996 Q 5.9163629150390635 2.2052249999999995 5.930237915039063 2.215725 Q 5.944112915039063 2.226225 5.9621129150390635 2.226225 Q 5.983112915039063 2.226225 6.000362915039063 2.2190999999999996 Q 6.017612915039063 2.211975 6.021362915039063 2.2089749999999997 L 6.034862915039064 2.250225 M 6.261775268554688 2.2764749999999996 Q 6.219775268554688 2.2764749999999996 6.1837752685546885 2.26035 Q 6.147775268554688 2.2442249999999997 6.121525268554688 2.2161 Q 6.095275268554689 2.187975 6.080650268554688 2.1512249999999997 Q 6.0660252685546885 2.1144749999999997 6.0660252685546885 2.072475 Q 6.0660252685546885 2.0177249999999995 6.0911502685546886 1.9719749999999998 Q 6.116275268554689 1.9262249999999996 6.1605252685546885 1.8988499999999997 Q 6.204775268554688 1.8714749999999998 6.261025268554688 1.8714749999999998 Q 6.318775268554688 1.8714749999999998 6.361900268554688 1.8992249999999997 Q 6.405025268554688 1.9269749999999997 6.429775268554688 1.9723499999999996 Q 6.454525268554688 2.0177249999999995 6.454525268554688 2.071725 Q 6.454525268554688 2.0777249999999996 6.454525268554688 2.08335 Q 6.454525268554688 2.0889749999999996 6.453775268554688 2.0919749999999997 L 6.119275268554688 2.0919749999999997 Q 6.123025268554688 2.1339749999999995 6.142900268554688 2.1666 Q 6.162775268554689 2.1992249999999998 6.194650268554688 2.2183499999999996 Q 6.226525268554688 2.237475 6.264025268554688 2.237475 Q 6.302275268554689 2.237475 6.336400268554688 2.2179749999999996 Q 6.3705252685546885 2.1984749999999997 6.384025268554688 2.166975 L 6.428275268554688 2.178975 Q 6.416275268554688 2.2067249999999996 6.391525268554688 2.2292249999999996 Q 6.366775268554688 2.2517249999999995 6.333400268554688 2.2640999999999996 Q 6.3000252685546885 2.2764749999999996 6.261775268554688 2.2764749999999996 M 6.117775268554689 2.0552249999999996 L 6.406525268554688 2.0552249999999996 Q 6.403525268554688 2.012475 6.383650268554688 1.9802249999999997 Q 6.363775268554688 1.9479749999999998 6.331900268554688 1.9295999999999998 Q 6.3000252685546885 1.9112249999999997 6.261775268554688 1.9112249999999997 Q 6.223525268554688 1.9112249999999997 6.192025268554688 1.9295999999999998 Q 6.1605252685546885 1.9479749999999998 6.140650268554689 1.9805999999999997 Q 6.120775268554688 2.013225 6.117775268554689 2.0552249999999996 M 6.2767752685546885 1.8039749999999997 L 6.243025268554688 1.7912249999999998 L 6.287275268554688 1.7214749999999999 L 6.341275268554688 1.7214749999999999 L 6.2767752685546885 1.8039749999999997 M 6.729381591796876 1.9232249999999997 Q 6.678381591796875 1.9247249999999998 6.639756591796876 1.9517249999999997 Q 6.601131591796876 1.9787249999999998 6.585381591796875 2.025975 L 6.585381591796875 2.2689749999999997 L 6.534381591796876 2.2689749999999997 L 6.534381591796876 1.8782249999999998 L 6.582381591796876 1.8782249999999998 L 6.582381591796876 1.9719749999999998 Q 6.602631591796876 1.9307249999999998 6.636006591796876 1.9052249999999997 Q 6.669381591796876 1.8797249999999996 6.706881591796876 1.8767249999999998 Q 6.714381591796876 1.8759749999999997 6.720006591796876 1.8759749999999997 Q 6.725631591796875 1.8759749999999997 6.729381591796876 1.8767249999999998 L 6.729381591796876 1.9232249999999997 M 6.798766479492189 2.2689749999999997 L 6.798766479492189 1.8782249999999998 L 6.849766479492188 1.8782249999999998 L 6.849766479492188 2.2689749999999997 L 6.798766479492189 2.2689749999999997 M 6.798766479492189 1.7964749999999996 L 6.798766479492189 1.7214749999999999 L 6.849766479492188 1.7214749999999999 L 6.849766479492188 1.7964749999999996 L 6.798766479492189 1.7964749999999996 M 7.132154663085938 2.2764749999999996 Q 7.090154663085938 2.2764749999999996 7.054154663085939 2.26035 Q 7.018154663085938 2.2442249999999997 6.991904663085938 2.2161 Q 6.965654663085939 2.187975 6.951029663085938 2.1512249999999997 Q 6.936404663085939 2.1144749999999997 6.936404663085939 2.072475 Q 6.936404663085939 2.0177249999999995 6.961529663085939 1.9719749999999998 Q 6.986654663085939 1.9262249999999996 7.030904663085939 1.8988499999999997 Q 7.0751546630859385 1.8714749999999998 7.131404663085938 1.8714749999999998 Q 7.189154663085938 1.8714749999999998 7.232279663085938 1.8992249999999997 Q 7.275404663085938 1.9269749999999997 7.300154663085938 1.9723499999999996 Q 7.324904663085938 2.0177249999999995 7.324904663085938 2.071725 Q 7.324904663085938 2.0777249999999996 7.324904663085938 2.08335 Q 7.324904663085938 2.0889749999999996 7.324154663085938 2.0919749999999997 L 6.989654663085938 2.0919749999999997 Q 6.993404663085938 2.1339749999999995 7.013279663085938 2.1666 Q 7.033154663085939 2.1992249999999998 7.065029663085938 2.2183499999999996 Q 7.0969046630859385 2.237475 7.134404663085938 2.237475 Q 7.172654663085939 2.237475 7.206779663085938 2.2179749999999996 Q 7.240904663085939 2.1984749999999997 7.254404663085938 2.166975 L 7.298654663085938 2.178975 Q 7.286654663085939 2.2067249999999996 7.2619046630859385 2.2292249999999996 Q 7.2371546630859385 2.2517249999999995 7.203779663085938 2.2640999999999996 Q 7.170404663085939 2.2764749999999996 7.132154663085938 2.2764749999999996 M 6.988154663085939 2.0552249999999996 L 7.276904663085938 2.0552249999999996 Q 7.273904663085938 2.012475 7.254029663085938 1.9802249999999997 Q 7.234154663085938 1.9479749999999998 7.202279663085938 1.9295999999999998 Q 7.170404663085939 1.9112249999999997 7.132154663085938 1.9112249999999997 Q 7.093904663085938 1.9112249999999997 7.062404663085938 1.9295999999999998 Q 7.030904663085939 1.9479749999999998 7.011029663085939 1.9805999999999997 Q 6.991154663085938 2.013225 6.988154663085939 2.0552249999999996 M 7.401010986328126 2.107725 L 7.401010986328126 1.8782249999999998 L 7.452010986328126 1.8782249999999998 L 7.452010986328126 2.098725 Q 7.452010986328126 2.165475 7.474885986328126 2.1984749999999997 Q 7.497760986328126 2.2314749999999997 7.542760986328126 2.2314749999999997 Q 7.5727609863281256 2.2314749999999997 7.600885986328126 2.2183499999999996 Q 7.629010986328126 2.2052249999999995 7.650760986328126 2.18085 Q 7.672510986328126 2.156475 7.683760986328126 2.1242249999999996 L 7.683760986328126 1.8782249999999998 L 7.734760986328126 1.8782249999999998 L 7.734760986328126 2.2074749999999996 Q 7.734760986328126 2.2179749999999996 7.739260986328126 2.2228499999999998 Q 7.743760986328126 2.227725 7.752760986328126 2.2284749999999995 L 7.752760986328126 2.2689749999999997 Q 7.743760986328126 2.2697249999999998 7.738510986328126 2.2701 Q 7.733260986328126 2.270475 7.728760986328126 2.270475 Q 7.713760986328126 2.2689749999999997 7.702885986328126 2.258475 Q 7.692010986328126 2.247975 7.691260986328126 2.2329749999999997 L 7.6897609863281255 2.180475 Q 7.664260986328126 2.225475 7.620385986328126 2.250975 Q 7.576510986328126 2.2764749999999996 7.5255109863281255 2.2764749999999996 Q 7.464010986328126 2.2764749999999996 7.432510986328126 2.2337249999999997 Q 7.401010986328126 2.190975 7.401010986328126 2.107725 M 8.046381591796877 1.9232249999999997 Q 7.995381591796876 1.9247249999999998 7.956756591796876 1.9517249999999997 Q 7.918131591796876 1.9787249999999998 7.902381591796876 2.025975 L 7.902381591796876 2.2689749999999997 L 7.851381591796876 2.2689749999999997 L 7.851381591796876 1.8782249999999998 L 7.899381591796876 1.8782249999999998 L 7.899381591796876 1.9719749999999998 Q 7.919631591796876 1.9307249999999998 7.953006591796876 1.9052249999999997 Q 7.986381591796876 1.8797249999999996 8.023881591796876 1.8767249999999998 Q 8.031381591796876 1.8759749999999997 8.037006591796876 1.8759749999999997 Q 8.042631591796876 1.8759749999999997 8.046381591796877 1.8767249999999998 L 8.046381591796877 1.9232249999999997" fill="#225777" fill-rule="nonzero"></path></g></g><defs><clipPath id="SvgjsClipPath12483"><path d=" M -7.059664268668157 -1.2452335562768695 h 6.659664268668156 v 4.759442112553739 h -6.659664268668156 Z"></path></clipPath><clipPath id="SvgjsClipPath12481b60ab581-a97f-4087-baac-6411c3412726"><path d=" M -7.059664268668157 -1.2452335562768695 L -0.40000000000000036 -1.2452335562768695 L -0.40000000000000036 3.514208556276869 L -7.059664268668157 3.514208556276869 Z"></path></clipPath></defs></svg>